<?xml version="1.0" encoding="utf-8"?>
<!-- Generator: Adobe Illustrator 27.5.0, SVG Export Plug-In . SVG Version: 6.00 Build 0)  -->
<svg version="1.1" id="Layer_1" xmlns="http://www.w3.org/2000/svg" xmlns:xlink="http://www.w3.org/1999/xlink" x="0px" y="0px"
	 viewBox="0 0 185.3 52.73" style="enable-background:new 0 0 185.3 52.73;" xml:space="preserve">
<style type="text/css">
	.st0{fill:none;}
	.st1{fill:#EF4136;}
	.st2{fill:#F7941D;}
	.st3{fill:#EC008C;stroke:#E72B91;stroke-width:0.5;stroke-miterlimit:10;}
	.st4{fill:#FBB040;}
	.st5{fill:#EC008C;}
	.st6{fill:#E72B91;}
	.st7{stroke:#000000;stroke-width:0.5;stroke-miterlimit:10;}
	.st8{fill:none;stroke:#000000;stroke-miterlimit:10;}
</style>
<g>
	<g>
		<rect x="3.77" y="16.44" class="st0" width="43.42" height="25.03"/>
		<path class="st1" d="M25.21,16.45l-4.24,16h-4.12l-2.24-8.82l-2.11,8.82h-4.3l-4.25-16h4.62l2.24,9.21l2.18-9.21h3.85l2.38,9.22
			l2.24-9.22H25.21z"/>
		<path class="st2" d="M43.2,16.45l-4.24,16h-4.12l-2.24-8.82l-2.11,8.82h-4.3l-4.25-16h4.62l2.24,9.21l2.18-9.21h3.86l2.38,9.22
			l2.24-9.22H43.2z"/>
	</g>
	<g>
		<polygon class="st0" points="33,7.79 132.47,8.07 132.26,45.05 32.79,44.76 		"/>
		<path class="st3" d="M57.62,28.66c-0.39-0.72-0.98-1.37-1.76-1.95s-1.66-1.04-2.64-1.39s-2-0.61-3.06-0.79
			c-3.16-0.47-6.1-1.49-8.84-3.07c-0.23-0.12-0.48-0.39-0.75-0.8s-0.4-0.8-0.4-1.17c0-1.38,0.23-2.75,0.69-4.14s1.05-2.46,1.77-3.25
			c1.16-1.3,3.24-2.43,6.25-3.4s6.39-1.45,10.16-1.45c2.25,0,3.99,0.17,5.21,0.52c1.23,0.34,1.84,0.87,1.84,1.59
			c0,1.17-0.16,2.08-0.48,2.72s-0.66,1.07-1.03,1.28s-1.01,0.5-1.93,0.86c-0.98,0.34-1.84,0.7-2.57,1.08s-1.35,0.73-1.86,1.08
			s-0.84,0.52-0.96,0.52c-0.16,0-0.23-0.06-0.23-0.19c0-0.27,0.28-0.67,0.83-1.21s1.24-1.01,2.05-1.42
			c0.86-0.45,1.29-0.74,1.29-0.87c0-0.2-0.48-0.3-1.43-0.3c-2.89,0-5.56,0.26-8.02,0.77s-4.39,1.2-5.8,2.04s-2.12,1.7-2.12,2.58
			c0,0.55,0.29,0.93,0.88,1.16s1.88,0.61,3.88,1.14s3.79,1.14,5.37,1.83c2.27,0.97,3.95,1.98,5.04,3.02s1.64,2.22,1.64,3.52
			c0,0.89-0.21,1.79-0.64,2.68s-1.06,1.72-1.89,2.47s-1.78,1.37-2.86,1.85c-0.92,0.39-2.08,0.76-3.48,1.1s-2.91,0.61-4.55,0.81
			s-3.19,0.29-4.68,0.29c-2.73,0-4.93-0.26-6.6-0.77s-2.5-1.3-2.5-2.34c0-0.47,0.28-1.2,0.84-2.19s1.23-1.66,1.99-2
			c0.67-0.27,1.32-0.42,1.95-0.46s0.94,0.04,0.94,0.22c0,0.05-0.02,0.09-0.07,0.14s-0.1,0.09-0.16,0.12s-0.12,0.06-0.19,0.09
			c-0.31,0.12-0.57,0.22-0.76,0.29s-0.35,0.14-0.47,0.21s-0.18,0.17-0.18,0.29c0,0.33,1.62,0.49,4.85,0.49c2.81,0,5.12-0.1,6.91-0.3
			s3.38-0.57,4.76-1.1S56.49,29.6,57.62,28.66z"/>
		<path class="st3" d="M78.47,28.1v1.57c-1.67,1.64-3.04,2.91-4.09,3.82s-2.04,1.61-2.95,2.11s-1.81,0.75-2.68,0.75
			c-0.86,0-1.65-0.34-2.37-1.02s-1.28-1.57-1.69-2.67s-0.61-2.27-0.61-3.5c0-1.06,0.23-2.01,0.7-2.84s1.38-1.9,2.72-3.21
			c1.59-1.56,3.07-2.77,4.44-3.62s2.44-1.28,3.22-1.28c0.56,0,1.04,0.2,1.43,0.59s0.59,0.88,0.59,1.48c0,0.5-0.26,1.21-0.77,2.13
			s-1.09,1.72-1.73,2.4s-1.15,1.02-1.52,1.02c-0.41,0-0.61-0.22-0.61-0.66c0.02-0.12,0.03-0.24,0.04-0.35s0.01-0.22,0.01-0.33
			c0-0.19-0.07-0.29-0.2-0.32s-0.29,0.04-0.48,0.18c-1.56,1.09-2.63,1.86-3.21,2.31s-1.04,0.89-1.37,1.35s-0.5,0.93-0.5,1.43
			c0,0.92,0.3,1.67,0.89,2.25s1.37,0.87,2.32,0.87c0.98,0,2.17-0.38,3.55-1.14S76.6,29.55,78.47,28.1z"/>
		<path class="st3" d="M93.45,28.01v1.57c-1.03,0.94-1.86,1.56-2.48,1.88s-1.52,0.44-2.7,0.38c-2.03,2.41-3.82,3.61-5.37,3.61
			c-0.88,0-1.67-0.29-2.39-0.87s-1.29-1.37-1.72-2.37s-0.64-2.12-0.64-3.35c0-1,0.33-2.11,1-3.33s1.52-2.36,2.58-3.41
			s2.18-1.91,3.39-2.55s2.32-0.97,3.35-0.97c0.73,0,1.31,0.11,1.73,0.34s0.63,0.54,0.63,0.95c0,0.31-0.18,0.67-0.54,1.08
			c0.59,0.12,1,0.33,1.22,0.62s0.33,0.82,0.33,1.58c0,0.75-0.18,1.7-0.53,2.84s-0.83,2.21-1.44,3.21l0.42,0.42h0.35
			c0.27,0,0.53-0.07,0.79-0.2s0.49-0.27,0.69-0.42S92.76,28.52,93.45,28.01z M88.62,21.84c-1.3,0.78-2.41,1.49-3.33,2.12
			s-1.7,1.27-2.34,1.92s-1.07,1.3-1.29,1.96c-0.39,1.75-0.59,2.7-0.59,2.84c0,1.03,0.72,1.55,2.16,1.55c0.67,0,1.8-0.58,3.38-1.73
			c-0.27-0.73-0.4-1.44-0.4-2.11c0-0.98,0.2-1.99,0.61-3.01S87.83,23.17,88.62,21.84z"/>
		<path class="st3" d="M104.44,26.46c-2.27,3-3.99,5.13-5.17,6.4s-2.14,1.9-2.89,1.9c-0.59,0-1.14-0.25-1.64-0.74
			s-0.89-1.16-1.16-1.99s-0.41-1.73-0.41-2.68c0-0.62,0.06-1.19,0.18-1.69s0.34-1.05,0.67-1.65s0.76-1.25,1.3-1.96
			s1.2-1.5,1.98-2.39c0.47-0.55,0.86-1.01,1.18-1.38s0.63-0.63,0.94-0.76s0.8-0.2,1.49-0.2c0.5,0,0.98,0.07,1.43,0.2
			s0.68,0.27,0.68,0.41c0,0.28-0.23,0.79-0.69,1.52s-1.2,1.63-2.23,2.68s-2.21,2.09-3.55,3.11c-0.3,0.92-0.45,1.62-0.45,2.11
			c0,0.67,0.26,1.01,0.77,1.01c0.19,0,0.5-0.16,0.94-0.48s1.18-0.94,2.21-1.85s1.97-1.72,2.8-2.43c0.61-0.53,1.32-1.32,2.12-2.38
			s1.46-1.85,1.96-2.38c1.16-1.22,1.95-2.01,2.37-2.38s0.83-0.55,1.22-0.55c0.38,0,0.63,0.12,0.76,0.35s0.2,0.71,0.2,1.43
			c0,0.33-0.03,0.59-0.09,0.8s-0.19,0.46-0.39,0.79s-0.59,0.91-1.18,1.77s-1.3,1.88-2.11,3.05c-0.44,0.62-0.82,1.31-1.15,2.05
			s-0.49,1.3-0.49,1.68c0,0.81,0.32,1.22,0.96,1.22c0.53,0,1.15-0.22,1.85-0.66s1.78-1.23,3.23-2.37v1.57
			c-1.83,1.69-3.18,2.91-4.05,3.68s-1.63,1.34-2.27,1.73s-1.25,0.59-1.83,0.59c-1.31,0-1.97-0.78-1.97-2.34
			c0-0.59,0.2-1.39,0.59-2.4S103.57,28.36,104.44,26.46z"/>
		<path class="st3" d="M120.1,15.89h1.01c0.83-1.48,1.58-2.54,2.25-3.15s1.44-0.93,2.3-0.93s1.29,0.2,1.29,0.59
			c0,0.19-0.34,0.7-1.01,1.52s-1.18,1.52-1.52,2.09c0.53,0.06,1,0.12,1.42,0.16s0.74,0.09,0.97,0.12c-0.89,1.66-2.01,3.35-3.35,5.09
			c-0.44-0.03-0.8-0.06-1.1-0.08s-0.6-0.05-0.9-0.07s-0.68-0.05-1.11-0.08c-0.84,1.36-1.55,2.57-2.12,3.64s-1.01,2.05-1.31,2.94
			s-0.46,1.73-0.46,2.53c0,1.08,0.43,1.62,1.29,1.62c0.59,0,1.37-0.32,2.33-0.95s2.25-1.61,3.86-2.92v1.57
			c-4.22,4.58-7.34,6.87-9.35,6.87c-0.7,0-1.27-0.27-1.7-0.82s-0.64-1.25-0.64-2.11c0-0.58,0.12-1.27,0.36-2.06s0.68-2,1.3-3.61
			c-0.22,0.19-0.43,0.37-0.62,0.55s-0.38,0.34-0.54,0.49s-0.34,0.3-0.53,0.47s-0.38,0.33-0.56,0.5v-1.62
			c1.64-1.38,3.62-3.79,5.95-7.24c-0.23-0.02-0.45-0.03-0.66-0.04s-0.45-0.01-0.73-0.01c-0.92,0-1.61,0.06-2.06,0.19
			c-0.19,0.05-0.36,0.1-0.53,0.15s-0.28,0.08-0.34,0.08s-0.09-0.05-0.09-0.14c0-0.52,0.32-1.29,0.96-2.32
			c0.52-0.88,1-1.52,1.46-1.95s1.02-0.71,1.69-0.86S118.9,15.89,120.1,15.89z"/>
	</g>
	<g>
		<g>
			<path class="st4" d="M174.95,23.3c0.02,0.49,0.04,0.87,0.04,1.12c-0.06,9.11-8.27,22.21-22.07,22.76
				c-12.36,0.5-23.37-9.3-23.89-22.03c-0.51-12.68,9.35-23.37,22.03-23.89C163.75,0.76,174.44,10.62,174.95,23.3z"/>
			<g>
				<path class="st2" d="M130.3,16.22c0.12-0.4,0.4-0.29,0.62-0.36c3.57-0.06,6.86-1.15,10.33-1.95c3.76-0.82,7.86-1.31,11.56,0.13
					c3.51,1.32,6.14,3.94,9.82,4.24c3.18,0.37,6-1.7,8.61-3.24c0.16-0.13,0.31-0.26,0.95,0.43l1.49,2.6c0.24,0.91-0.01,1-0.24,1.09
					c-5.19,2.28-11.34,1.52-16.68,0.28c-3.46-0.86-6.54-1.58-9.98-1.71c-4.95-0.33-10.44-1.44-14.92,1.35
					c-0.21,0.06-0.37,0.29-0.68,0.02L130.3,16.22L130.3,16.22z"/>
			</g>
			<g>
				<path class="st2" d="M131.7,23.62c5.68,2.6,11.63,5.69,18.07,4.94c2.96-0.3,4.47-2.41,7.11-4.05c1.77-1.16,4.34-1.58,6.38-1.36
					c2.92,0.24,5.53,0.38,8.38,0.39c0,0,1.39,0,1.39,0c0.46,0.07,0.92-0.26,1.4,0.54l0.07,3c-0.47,0.8-0.97,0.47-1.46,0.54
					c-3.35,0.1-6.94-0.36-10.16-0.96c-3.82-0.85-6.35,1.43-9.85,2.95c-3.79,1.38-7.96,1.34-11.96,1.06
					c-3.99-0.44-7.99-1.86-11.04-4.53C130.04,26.12,131.7,23.62,131.7,23.62L131.7,23.62z"/>
			</g>
			<g>
				<path class="st2" d="M133.56,35.86c4.83-2.8,10.88-3.77,16.23-1.98c2.31,0.36,5.03,0.4,7.01,1.78c1.21,0.73,2.15,1.94,3.45,2.55
					c2.45,1.09,6.09,0.24,7.51-2.12c0,0,1.73,2.45,1.73,2.45c-0.91,0.16-1.65,0.5-2.42,0.79c-2.33,0.85-4.8,0.91-7.25,0.77
					c-1.64-0.07-3.5-0.11-4.94-0.79c-2.09-0.81-3.25-2.94-5.49-3.39c-1.39-0.32-2.85,0.26-4.23,0.32
					c-3.59,0.39-6.85,1.64-10.47,2.41C134.69,38.64,133.56,35.86,133.56,35.86L133.56,35.86z"/>
			</g>
			<g>
				<path class="st2" d="M138.03,6.86c3.39-0.22,6.63-0.22,9.96-0.03c2.18,0.38,4.42,0.91,6.65,0.41c3.3-0.49,6.38-1.97,9.7-2.21
					c0,0,0.73,2.91,0.73,2.91c-2.14,0.94-4.49,1.09-6.79,1.16c-2.32,0.06-4.6-0.01-6.86,0.4c-2.25,0.63-4.56,0.96-6.89,0.65
					c-2.3-0.21-4.58-0.65-6.76-1.49L138.03,6.86L138.03,6.86z"/>
			</g>
		</g>
		<g>
			<path class="st5" d="M152.37,33.92c-0.08,0.69-0.15,1.34-0.24,1.98c-0.03,0.2,0.06,0.3,0.21,0.41c1.28,0.91,2.54,1.84,3.82,2.74
				c1.07,0.76,1.72,1.8,2.1,3.03c0.25,0.79-0.06,1.18-0.89,1.17c-1.32-0.01-2.54-0.35-3.6-1.18c-1.19-0.92-2.41-1.81-3.61-2.72
				c-0.19-0.14-0.33-0.18-0.55-0.08c-0.56,0.27-1.14,0.52-1.7,0.78c-0.02,0.12,0.08,0.14,0.14,0.19c0.46,0.37,0.52,0.89,0.15,1.36
				c-0.31,0.4-0.88,0.59-1.33,0.2c-0.24-0.21-0.54-0.37-0.78-0.59c-0.22-0.19-0.4-0.18-0.64-0.06c-2.29,1.04-4.58,2.07-6.87,3.12
				c-0.41,0.19-0.74,0.17-1.1-0.12c-0.29-0.25-0.63-0.44-0.99-0.69c0.78-0.63,1.51-1.22,2.24-1.8c2.24-1.79,4.47-3.59,6.71-5.38
				c0.25-0.2,0.24-0.28-0.01-0.48c-1.39-1.06-2.88-1.99-4.13-3.22c-0.43-0.42-0.85-0.85-1.27-1.28c-0.42-0.43-0.41-0.43-0.94-0.19
				c-0.97,0.43-1.94,0.85-2.9,1.3c-0.43,0.2-0.76,0.15-1.13-0.14c-0.61-0.47-0.62-0.45-0.02-0.94c0.91-0.73,1.82-1.47,2.74-2.19
				c0.2-0.15,0.18-0.26,0.06-0.44c-0.14-0.21-0.26-0.43-0.36-0.67c-0.11-0.26,0.03-0.44,0.3-0.42c0.21,0.01,0.44,0.03,0.64,0.12
				c0.34,0.14,0.45,0.01,0.56-0.29c0.44-1.19,0.91-2.36,1.37-3.54c0.03-0.09,0.07-0.18,0.12-0.28c0.32,0.23,0.63,0.45,0.94,0.68
				c0.18,0.14,0.2,0.35,0.17,0.56c-0.13,1.14-0.24,2.27-0.39,3.4c-0.05,0.4,0.03,0.62,0.41,0.78c2.07,0.88,3.84,2.25,5.64,3.56
				c0.66,0.48,0.66,0.48,0.95-0.29c1.27-3.28,2.54-6.56,3.81-9.84c0.16-0.41,0.16-0.41,0.51-0.15c0.24,0.18,0.48,0.37,0.73,0.53
				c0.31,0.21,0.38,0.5,0.34,0.85c-0.3,2.51-0.6,5.02-0.91,7.52c-0.04,0.3,0.01,0.49,0.28,0.65c0.27,0.16,0.51,0.36,0.76,0.55
				c0.46,0.34,0.54,0.86,0.22,1.32c-0.35,0.5-0.85,0.6-1.34,0.27C152.54,34.02,152.48,33.99,152.37,33.92z"/>
		</g>
		<path class="st5" d="M142.48,7.62c-4.69-0.84-6.35-0.65-8.83,1.59c-5.9,5.34,3.66,17.87,3.07,18.08
			c-0.6,0.21-9.28-12.7-5.13-18.57c6.03-8.52,28.2,1.45,43.79,11.42c5.01,3.2,6.51,5.18,6.51,5.18S158.17,9.92,142.48,7.62"/>
		<path class="st5" d="M192.86,37.38"/>
	</g>
</g>
<g>
	<path class="st6" d="M11.4,51.45c17.99-9.67,39.53-13.11,59.1-6.34c19.02,6.78,39.94,5.66,58.47-2.34c0,0,0.11,0.23,0.11,0.23
		c-8.85,4.89-18.85,7.81-29.04,8.53c-10.23,0.87-20.22-2.33-30-4.67c-20.03-5-39.46-3.1-58.53,4.83
		C11.5,51.67,11.4,51.45,11.4,51.45L11.4,51.45z"/>
</g>
<g>
	<rect x="-154.41" y="112.32" class="st0" width="43.42" height="25.03"/>
	<path d="M-132.97,112.34l-4.24,16h-4.12l-2.24-8.82l-2.11,8.82h-4.3l-4.25-16h4.62l2.24,9.21l2.18-9.21h3.85l2.38,9.22l2.24-9.22
		H-132.97z"/>
	<path d="M-114.97,112.34l-4.24,16h-4.12l-2.24-8.82l-2.11,8.82h-4.3l-4.25-16h4.62l2.24,9.21l2.18-9.21h3.85l2.38,9.22l2.24-9.22
		H-114.97z"/>
</g>
<g>
	<polygon class="st0" points="-125.18,103.67 -25.71,103.96 -25.92,140.93 -125.39,140.65 	"/>
	<path class="st7" d="M-100.56,124.55c-0.39-0.72-0.98-1.37-1.76-1.95s-1.66-1.04-2.64-1.39s-2-0.61-3.06-0.79
		c-3.16-0.47-6.1-1.49-8.84-3.07c-0.23-0.12-0.48-0.39-0.75-0.8s-0.4-0.8-0.4-1.17c0-1.38,0.23-2.75,0.69-4.14s1.05-2.46,1.77-3.25
		c1.16-1.3,3.24-2.43,6.25-3.4s6.39-1.45,10.16-1.45c2.25,0,3.99,0.17,5.21,0.52s1.84,0.88,1.84,1.59c0,1.17-0.16,2.08-0.48,2.72
		s-0.66,1.07-1.03,1.28s-1.01,0.5-1.93,0.86c-0.98,0.34-1.84,0.7-2.57,1.08s-1.35,0.73-1.86,1.08s-0.84,0.52-0.96,0.52
		c-0.16,0-0.23-0.06-0.23-0.19c0-0.27,0.28-0.67,0.83-1.21s1.24-1.01,2.05-1.42c0.86-0.45,1.29-0.74,1.29-0.87
		c0-0.2-0.48-0.3-1.43-0.3c-2.89,0-5.56,0.26-8.02,0.77s-4.39,1.2-5.8,2.04s-2.12,1.7-2.12,2.58c0,0.55,0.29,0.93,0.88,1.16
		s1.88,0.61,3.88,1.14s3.79,1.14,5.37,1.83c2.27,0.97,3.95,1.98,5.04,3.02s1.64,2.22,1.64,3.52c0,0.89-0.21,1.79-0.64,2.68
		c-0.43,0.9-1.06,1.72-1.89,2.47s-1.78,1.37-2.86,1.85c-0.92,0.39-2.08,0.76-3.48,1.1s-2.91,0.61-4.55,0.81s-3.19,0.29-4.68,0.29
		c-2.73,0-4.93-0.26-6.6-0.77s-2.5-1.3-2.5-2.34c0-0.47,0.28-1.2,0.84-2.19c0.56-0.99,1.23-1.66,1.99-2
		c0.67-0.27,1.32-0.42,1.95-0.46s0.94,0.04,0.94,0.22c0,0.05-0.02,0.09-0.07,0.14s-0.1,0.09-0.16,0.12s-0.12,0.06-0.19,0.09
		c-0.31,0.12-0.57,0.22-0.76,0.29s-0.35,0.14-0.47,0.21s-0.18,0.17-0.18,0.29c0,0.33,1.62,0.49,4.85,0.49c2.81,0,5.12-0.1,6.91-0.3
		c1.8-0.2,3.38-0.57,4.76-1.1S-101.69,125.48-100.56,124.55z"/>
	<path class="st7" d="M-79.7,123.98v1.57c-1.67,1.64-3.04,2.91-4.09,3.82s-2.04,1.61-2.95,2.11s-1.81,0.75-2.68,0.75
		c-0.86,0-1.65-0.34-2.37-1.02s-1.28-1.57-1.69-2.67c-0.41-1.1-0.61-2.27-0.61-3.5c0-1.06,0.23-2.01,0.7-2.84s1.38-1.9,2.72-3.21
		c1.59-1.56,3.07-2.77,4.44-3.62s2.44-1.28,3.22-1.28c0.56,0,1.04,0.2,1.43,0.59s0.59,0.88,0.59,1.48c0,0.5-0.26,1.21-0.77,2.13
		s-1.09,1.72-1.73,2.4s-1.15,1.02-1.52,1.02c-0.41,0-0.61-0.22-0.61-0.66c0.02-0.12,0.03-0.24,0.04-0.35s0.01-0.22,0.01-0.33
		c0-0.19-0.07-0.29-0.2-0.32s-0.29,0.04-0.48,0.18c-1.56,1.09-2.63,1.86-3.21,2.31s-1.04,0.89-1.37,1.35s-0.5,0.93-0.5,1.43
		c0,0.92,0.3,1.67,0.89,2.25c0.59,0.58,1.37,0.87,2.32,0.87c0.98,0,2.17-0.38,3.55-1.14C-83.21,126.54-81.58,125.44-79.7,123.98z"/>
	<path class="st7" d="M-64.73,123.89v1.57c-1.03,0.94-1.86,1.56-2.48,1.88s-1.52,0.44-2.7,0.38c-2.03,2.41-3.82,3.61-5.37,3.61
		c-0.88,0-1.67-0.29-2.39-0.87s-1.29-1.37-1.72-2.37c-0.43-1-0.64-2.12-0.64-3.35c0-1,0.33-2.11,1-3.33s1.52-2.36,2.58-3.41
		s2.18-1.91,3.39-2.55s2.32-0.97,3.35-0.97c0.73,0,1.31,0.11,1.73,0.34s0.63,0.54,0.63,0.95c0,0.31-0.18,0.67-0.54,1.08
		c0.59,0.12,1,0.33,1.22,0.62s0.33,0.82,0.33,1.58c0,0.75-0.18,1.7-0.53,2.84s-0.83,2.21-1.44,3.21l0.42,0.42h0.35
		c0.27,0,0.53-0.07,0.79-0.2s0.49-0.27,0.69-0.42S-65.41,124.41-64.73,123.89z M-69.55,117.73c-1.3,0.78-2.41,1.49-3.33,2.12
		s-1.7,1.27-2.34,1.92s-1.07,1.3-1.29,1.96c-0.39,1.75-0.59,2.7-0.59,2.84c0,1.03,0.72,1.55,2.16,1.55c0.67,0,1.8-0.58,3.38-1.73
		c-0.27-0.73-0.4-1.44-0.4-2.11c0-0.98,0.2-1.99,0.61-3.01S-70.35,119.05-69.55,117.73z"/>
	<path class="st7" d="M-53.73,122.34c-2.27,3-3.99,5.13-5.17,6.4c-1.18,1.27-2.14,1.9-2.89,1.9c-0.59,0-1.14-0.25-1.64-0.74
		s-0.89-1.16-1.16-1.99c-0.27-0.84-0.41-1.73-0.41-2.68c0-0.62,0.06-1.19,0.18-1.69s0.34-1.05,0.67-1.65
		c0.33-0.6,0.76-1.25,1.3-1.96s1.2-1.5,1.98-2.39c0.47-0.55,0.86-1.01,1.18-1.38s0.63-0.63,0.94-0.76s0.8-0.2,1.49-0.2
		c0.5,0,0.98,0.07,1.43,0.2s0.68,0.27,0.68,0.41c0,0.28-0.23,0.79-0.69,1.52s-1.2,1.63-2.23,2.68s-2.21,2.09-3.55,3.11
		c-0.3,0.92-0.45,1.62-0.45,2.11c0,0.67,0.26,1.01,0.77,1.01c0.19,0,0.5-0.16,0.94-0.48s1.18-0.94,2.21-1.85s1.97-1.72,2.8-2.43
		c0.61-0.53,1.32-1.32,2.12-2.38s1.46-1.85,1.96-2.38c1.16-1.22,1.95-2.01,2.37-2.38s0.83-0.55,1.22-0.55
		c0.38,0,0.63,0.12,0.76,0.35s0.2,0.71,0.2,1.43c0,0.33-0.03,0.59-0.09,0.8s-0.19,0.46-0.39,0.79s-0.59,0.91-1.18,1.77
		s-1.3,1.88-2.11,3.05c-0.44,0.62-0.82,1.31-1.15,2.05s-0.49,1.3-0.49,1.68c0,0.81,0.32,1.22,0.96,1.22c0.53,0,1.15-0.22,1.85-0.66
		s1.78-1.23,3.23-2.37v1.57c-1.83,1.69-3.18,2.91-4.05,3.68s-1.63,1.34-2.27,1.73s-1.25,0.59-1.83,0.59c-1.31,0-1.97-0.78-1.97-2.34
		c0-0.59,0.2-1.39,0.59-2.4S-54.61,124.25-53.73,122.34z"/>
	<path class="st7" d="M-38.08,111.77h1.01c0.83-1.48,1.58-2.54,2.25-3.15s1.44-0.93,2.3-0.93c0.86,0,1.29,0.2,1.29,0.59
		c0,0.19-0.34,0.7-1.01,1.52c-0.67,0.83-1.18,1.52-1.52,2.09c0.53,0.06,1,0.12,1.42,0.16c0.41,0.05,0.74,0.09,0.97,0.12
		c-0.89,1.66-2.01,3.35-3.35,5.09c-0.44-0.03-0.8-0.06-1.1-0.08s-0.6-0.05-0.9-0.07s-0.68-0.05-1.11-0.08
		c-0.84,1.36-1.55,2.57-2.12,3.64s-1.01,2.05-1.31,2.94s-0.46,1.73-0.46,2.53c0,1.08,0.43,1.62,1.29,1.62
		c0.59,0,1.37-0.32,2.33-0.95s2.25-1.61,3.86-2.92v1.57c-4.22,4.58-7.34,6.87-9.35,6.87c-0.7,0-1.27-0.27-1.7-0.82
		s-0.64-1.25-0.64-2.11c0-0.58,0.12-1.27,0.36-2.06c0.24-0.8,0.68-2,1.3-3.61c-0.22,0.19-0.43,0.37-0.62,0.55s-0.38,0.34-0.54,0.49
		s-0.34,0.3-0.53,0.47s-0.38,0.33-0.56,0.5v-1.62c1.64-1.38,3.62-3.79,5.95-7.24c-0.23-0.02-0.45-0.03-0.66-0.04
		s-0.45-0.01-0.73-0.01c-0.92,0-1.61,0.06-2.06,0.19c-0.19,0.05-0.36,0.1-0.53,0.15s-0.28,0.08-0.34,0.08s-0.09-0.05-0.09-0.14
		c0-0.52,0.32-1.29,0.96-2.32c0.52-0.88,1-1.52,1.46-1.95s1.02-0.71,1.69-0.86S-39.28,111.77-38.08,111.77z"/>
</g>
<path class="st8" d="M16.77,119.19c0.02,0.49,0.04,0.87,0.04,1.12c-0.06,9.11-8.27,22.21-22.07,22.76
	c-12.36,0.5-23.37-9.3-23.89-22.03c-0.51-12.68,9.35-23.37,22.03-23.89C5.57,96.64,16.26,106.51,16.77,119.19z"/>
<path class="st0" d="M-27.44,113.54c3.91-1.19,10.11-2.58,17.74-2.17c6.29,0.33,10.13,4.64,16.91,3.83c3.3-0.4,5.89-1.61,7.53-2.55"
	/>
<path class="st0" d="M-27.31,120.75c2.08,1.38,9.46,5.92,19.21,4.6c4.72-0.64,6.59-4.91,11.87-4.66c1.89,0.09,4.2,0.65,9.06,0.77
	c1.45,0.04,2.65,0.02,3.45,0"/>
<path class="st0" d="M-24.05,133.13c9.61-3.88,15.48-2.92,19.13-1.15c2.61,1.26,6.14,3.93,10.7,3.19c2.05-0.33,3.64-1.25,4.67-1.98"
	/>
<path class="st0" d="M-20.29,103.65c4.69,0.7,10.64,1.1,17.43,0.38c3.47-0.37,6.61-0.97,9.38-1.66"/>
<g>
	<path d="M-5.81,129.81c-0.08,0.69-0.15,1.34-0.24,1.98c-0.03,0.2,0.06,0.3,0.21,0.41c1.28,0.91,2.54,1.84,3.82,2.74
		c1.07,0.76,1.72,1.8,2.1,3.03c0.25,0.79-0.06,1.18-0.89,1.17c-1.32-0.01-2.54-0.35-3.6-1.18c-1.19-0.92-2.41-1.81-3.61-2.72
		c-0.19-0.14-0.33-0.18-0.55-0.08c-0.56,0.27-1.14,0.52-1.7,0.78c-0.02,0.12,0.08,0.14,0.14,0.19c0.46,0.37,0.52,0.89,0.15,1.36
		c-0.31,0.4-0.88,0.59-1.33,0.2c-0.24-0.21-0.54-0.37-0.78-0.59c-0.22-0.19-0.4-0.18-0.64-0.06c-2.29,1.04-4.58,2.07-6.87,3.12
		c-0.41,0.19-0.74,0.17-1.1-0.12c-0.29-0.25-0.63-0.44-0.99-0.69c0.78-0.63,1.51-1.22,2.24-1.8c2.24-1.79,4.47-3.59,6.71-5.38
		c0.25-0.2,0.24-0.28-0.01-0.48c-1.39-1.06-2.88-1.99-4.13-3.22c-0.43-0.42-0.85-0.85-1.27-1.28c-0.42-0.43-0.41-0.43-0.94-0.19
		c-0.97,0.43-1.94,0.85-2.9,1.3c-0.43,0.2-0.76,0.15-1.13-0.14c-0.61-0.47-0.62-0.45-0.02-0.94c0.91-0.73,1.82-1.47,2.74-2.19
		c0.2-0.15,0.18-0.26,0.06-0.44c-0.14-0.21-0.26-0.43-0.36-0.67c-0.11-0.26,0.03-0.44,0.3-0.42c0.21,0.01,0.44,0.03,0.64,0.12
		c0.34,0.14,0.45,0.01,0.56-0.29c0.44-1.19,0.91-2.36,1.37-3.54c0.03-0.09,0.07-0.18,0.12-0.28c0.32,0.23,0.63,0.45,0.94,0.68
		c0.18,0.14,0.2,0.35,0.17,0.56c-0.13,1.14-0.24,2.27-0.39,3.4c-0.05,0.4,0.03,0.62,0.41,0.78c2.07,0.88,3.84,2.25,5.64,3.56
		c0.66,0.48,0.66,0.48,0.95-0.29c1.27-3.28,2.54-6.56,3.81-9.84c0.16-0.41,0.16-0.41,0.51-0.15c0.24,0.18,0.48,0.37,0.73,0.53
		c0.31,0.21,0.38,0.5,0.34,0.85c-0.3,2.51-0.6,5.02-0.91,7.52c-0.04,0.3,0.01,0.49,0.28,0.65c0.27,0.16,0.51,0.36,0.76,0.55
		c0.46,0.34,0.54,0.86,0.22,1.32c-0.35,0.5-0.85,0.6-1.34,0.27C-5.64,129.91-5.7,129.87-5.81,129.81z"/>
</g>
<path d="M-15.69,103.5c-4.69-0.84-6.35-0.65-8.83,1.59c-5.9,5.34,3.66,17.87,3.07,18.08c-0.6,0.21-9.28-12.7-5.13-18.57
	c6.03-8.52,28.2,1.45,43.79,11.42c5.01,3.2,6.51,5.18,6.51,5.18S-0.01,105.8-15.69,103.5"/>
<path class="st5" d="M34.68,133.26"/>
<g>
	<path d="M-146.78,147.33c17.99-9.67,39.53-13.11,59.1-6.34c19.02,6.78,39.94,5.66,58.47-2.34c0,0,0.11,0.23,0.11,0.23
		c-8.85,4.89-18.85,7.81-29.04,8.53c-10.23,0.87-20.22-2.33-30-4.67c-20.03-5-39.46-3.1-58.53,4.83
		C-146.68,147.56-146.78,147.33-146.78,147.33L-146.78,147.33z"/>
</g>
<g>
</g>
<g>
</g>
<g>
</g>
<g>
</g>
<g>
</g>
<g>
</g>
</svg>
